<svg xmlns="http://www.w3.org/2000/svg" viewBox="0 0 48 48" width="48" height="48">
  <!-- Sprout - Tier 2 Crops -->
  <!-- Soil mound -->
  <ellipse cx="24" cy="40" rx="12" ry="4" fill="#8B6914"/>
  <ellipse cx="24" cy="39" rx="11" ry="3.5" fill="#A0785A"/>
  <!-- Stem -->
  <path d="M24 38 Q24 28 24 18" stroke="#5A9E4A" stroke-width="2" fill="none" stroke-linecap="round"/>
  <!-- Left leaf -->
  <path d="M24 30 Q16 26 14 22 Q18 24 24 28" fill="#7EC876" stroke="#5A9E4A" stroke-width="0.5"/>
  <!-- Right leaf -->
  <path d="M24 24 Q32 20 34 16 Q30 18 24 22" fill="#8ED888" stroke="#5A9E4A" stroke-width="0.5"/>
  <!-- Leaf veins -->
  <path d="M24 29 Q19 26 16 23" stroke="#5A9E4A" stroke-width="0.3" fill="none"/>
  <path d="M24 23 Q29 20 32 17" stroke="#5A9E4A" stroke-width="0.3" fill="none"/>
  <!-- Top bud -->
  <ellipse cx="24" cy="16" rx="3" ry="4" fill="#8ED888"/>
  <ellipse cx="24" cy="15" rx="2" ry="3" fill="#A0E89A"/>
  <ellipse cx="23" cy="14" rx="1" ry="1.5" fill="#C0F0B0" opacity="0.5"/>
</svg>
