<svg xmlns="http://www.w3.org/2000/svg" viewBox="0 0 48 48" width="48" height="48">
  <!-- Garden Fence - Tier 5 Tools -->
  <!-- Ground -->
  <ellipse cx="24" cy="44" rx="22" ry="3" fill="#7EC876" opacity="0.5"/>
  <!-- Fence pickets -->
  <rect x="4" y="14" width="6" height="26" rx="1" fill="#F5F0E8" stroke="#D4CFC4" stroke-width="0.8"/>
  <polygon points="4,16 7,8 10,16" fill="#F5F0E8" stroke="#D4CFC4" stroke-width="0.8"/>
  <rect x="14" y="14" width="6" height="26" rx="1" fill="#F5F0E8" stroke="#D4CFC4" stroke-width="0.8"/>
  <polygon points="14,16 17,8 20,16" fill="#F5F0E8" stroke="#D4CFC4" stroke-width="0.8"/>
  <rect x="24" y="14" width="6" height="26" rx="1" fill="#FEFCF8" stroke="#D4CFC4" stroke-width="0.8"/>
  <polygon points="24,16 27,8 30,16" fill="#FEFCF8" stroke="#D4CFC4" stroke-width="0.8"/>
  <rect x="34" y="14" width="6" height="26" rx="1" fill="#F5F0E8" stroke="#D4CFC4" stroke-width="0.8"/>
  <polygon points="34,16 37,8 40,16" fill="#F5F0E8" stroke="#D4CFC4" stroke-width="0.8"/>
  <!-- Horizontal rails -->
  <rect x="2" y="20" width="42" height="3" rx="1" fill="#F0EBE0" stroke="#D4CFC4" stroke-width="0.5"/>
  <rect x="2" y="32" width="42" height="3" rx="1" fill="#F0EBE0" stroke="#D4CFC4" stroke-width="0.5"/>
  <!-- Flowers at base -->
  <circle cx="9" cy="42" r="2.5" fill="#FF8FA0"/>
  <circle cx="9" cy="42" r="1.5" fill="#FFB0C0"/>
  <circle cx="9" cy="42" r="0.8" fill="#FFD700"/>
  <circle cx="22" cy="43" r="2" fill="#87CEEB"/>
  <circle cx="22" cy="43" r="1.2" fill="#A8DDFF"/>
  <circle cx="22" cy="43" r="0.6" fill="#FFD700"/>
  <circle cx="36" cy="42" r="2.5" fill="#DDA0DD"/>
  <circle cx="36" cy="42" r="1.5" fill="#EEB0EE"/>
  <circle cx="36" cy="42" r="0.8" fill="#FFD700"/>
  <!-- Leaves -->
  <ellipse cx="7" cy="44" rx="2" ry="1" fill="#5A9E4A"/>
  <ellipse cx="11" cy="44" rx="2" ry="1" fill="#5A9E4A"/>
  <ellipse cx="20" cy="44.5" rx="1.5" ry="0.8" fill="#5A9E4A"/>
  <ellipse cx="34" cy="44" rx="2" ry="1" fill="#5A9E4A"/>
  <ellipse cx="38" cy="44" rx="2" ry="1" fill="#5A9E4A"/>
</svg>
