<svg xmlns="http://www.w3.org/2000/svg" viewBox="0 0 48 48" width="48" height="48">
  <!-- Star Crystal - Tier 5 Crystal (max tier, sparkle effect) -->
  <!-- Glow aura -->
  <ellipse cx="24" cy="24" rx="22" ry="22" fill="#A0C0FF" opacity="0.08"/>
  <ellipse cx="24" cy="24" rx="18" ry="18" fill="#A0C0FF" opacity="0.12"/>
  <!-- Star shape with crystal facets -->
  <polygon points="24,2 28,16 42,16 30,26 34,40 24,32 14,40 18,26 6,16 20,16" fill="#5878B0"/>
  <polygon points="24,2 28,16 20,16" fill="#78A0D8" opacity="0.8"/>
  <polygon points="28,16 42,16 30,26" fill="#6890C0" opacity="0.6"/>
  <polygon points="20,16 6,16 18,26" fill="#88B0E0" opacity="0.5"/>
  <polygon points="30,26 34,40 24,32" fill="#6888B0" opacity="0.6"/>
  <polygon points="18,26 14,40 24,32" fill="#7898C0" opacity="0.5"/>
  <!-- Center gem -->
  <circle cx="24" cy="22" r="5" fill="#90B8E8"/>
  <circle cx="24" cy="22" r="3" fill="#B0D0FF" opacity="0.7"/>
  <!-- Sparkles -->
  <circle cx="24" cy="4" r="1.5" fill="#FFFFFF" opacity="0.9"/>
  <circle cx="40" cy="16" r="1.2" fill="#E8F0FF" opacity="0.8"/>
  <circle cx="8" cy="16" r="1.2" fill="#E8F0FF" opacity="0.8"/>
  <circle cx="33" cy="38" r="1" fill="#E8F0FF" opacity="0.7"/>
  <circle cx="15" cy="38" r="1" fill="#E8F0FF" opacity="0.7"/>
  <circle cx="24" cy="14" r="0.8" fill="#FFFFFF" opacity="0.6"/>
</svg>
