<svg xmlns="http://www.w3.org/2000/svg" viewBox="0 0 48 48" width="48" height="48">
  <!-- Prism - Tier 4 Crystal -->
  <ellipse cx="24" cy="44" rx="10" ry="3" fill="#4A4A5A" opacity="0.3"/>
  <!-- Rainbow refraction behind -->
  <ellipse cx="24" cy="28" rx="18" ry="14" fill="#E8D0FF" opacity="0.1"/>
  <!-- Main prism -->
  <polygon points="24,4 40,20 36,38 24,44 12,38 8,20" fill="#5070A0"/>
  <polygon points="24,4 40,20 32,18" fill="#6088B8" opacity="0.7"/>
  <polygon points="24,4 8,20 16,18" fill="#70A0D0" opacity="0.6"/>
  <polygon points="24,4 32,18 24,16 16,18" fill="#80B0E0" opacity="0.5"/>
  <!-- Prismatic color bands -->
  <path d="M14 30 L24 24 L34 30" stroke="#FF9090" stroke-width="0.8" fill="none" opacity="0.4"/>
  <path d="M15 33 L24 27 L33 33" stroke="#90FF90" stroke-width="0.8" fill="none" opacity="0.4"/>
  <path d="M16 36 L24 30 L32 36" stroke="#9090FF" stroke-width="0.8" fill="none" opacity="0.4"/>
  <!-- Sparkles -->
  <circle cx="30" cy="10" r="1.5" fill="#E0F0FF" opacity="0.9"/>
  <circle cx="18" cy="22" r="1" fill="#E0F0FF" opacity="0.6"/>
  <circle cx="32" cy="30" r="1" fill="#E0F0FF" opacity="0.5"/>
</svg>
