<svg xmlns="http://www.w3.org/2000/svg" viewBox="0 0 48 48" width="48" height="48">
  <!-- Ambrosia Jar - Tier 5 Honey (max tier) -->
  <rect x="12" y="16" width="24" height="24" rx="4" fill="#E8C870"/>
  <rect x="14" y="18" width="20" height="20" rx="3" fill="#FFD700"/>
  <rect x="16" y="10" width="16" height="8" rx="2" fill="#D4A45A"/>
  <rect x="18" y="12" width="12" height="4" rx="1" fill="#E8C870"/>
  <rect x="15" y="7" width="18" height="5" rx="2.5" fill="#A0785A"/>
  <rect x="16" y="8" width="16" height="3" rx="1.5" fill="#C4944A"/>
  <rect x="16" y="24" width="16" height="14" rx="2" fill="#FFB020" opacity="0.7"/>
  <ellipse cx="24" cy="24" rx="8" ry="1.5" fill="#FFD060" opacity="0.5"/>
  <polygon points="24,20 29,23 29,29 24,32 19,29 19,23" fill="#FFF8DC" stroke="#8B6914" stroke-width="0.8"/>
  <ellipse cx="24" cy="28" rx="14" ry="12" fill="#FFD700" opacity="0.15"/>
  <circle cx="10" cy="14" r="1.5" fill="#FFF8DC" opacity="0.9"/>
  <circle cx="38" cy="14" r="1.5" fill="#FFF8DC" opacity="0.9"/>
  <circle cx="8" cy="34" r="1" fill="#FFE44D" opacity="0.7"/>
  <circle cx="40" cy="34" r="1" fill="#FFE44D" opacity="0.7"/>
  <circle cx="24" cy="4" r="1.2" fill="#FFF8DC" opacity="0.8"/>
</svg>
