<svg xmlns="http://www.w3.org/2000/svg" viewBox="0 0 48 48" width="48" height="48">
  <!-- Apple Tree Full - Tier 4 Orchard -->
  <!-- Ground -->
  <ellipse cx="24" cy="46" rx="15" ry="3" fill="#8B6914"/>
  <ellipse cx="24" cy="45" rx="13" ry="2" fill="#A0785A"/>
  <!-- Trunk -->
  <rect x="20" y="30" width="8" height="17" rx="3" fill="#8B6914"/>
  <rect x="22" y="30" width="3" height="17" rx="1.5" fill="#A0785A" opacity="0.4"/>
  <!-- Branches -->
  <path d="M22 34 Q13 27 7 21" stroke="#8B6914" stroke-width="3" fill="none" stroke-linecap="round"/>
  <path d="M26 33 Q35 26 41 20" stroke="#8B6914" stroke-width="3" fill="none" stroke-linecap="round"/>
  <path d="M24 30 Q22 20 22 12" stroke="#8B6914" stroke-width="2.5" fill="none" stroke-linecap="round"/>
  <!-- Canopy layers -->
  <circle cx="24" cy="18" r="18" fill="#228B22"/>
  <circle cx="12" cy="20" r="12" fill="#2E9B2A" opacity="0.7"/>
  <circle cx="36" cy="20" r="11" fill="#289020" opacity="0.65"/>
  <circle cx="24" cy="10" r="12" fill="#2E9B2A" opacity="0.6"/>
  <!-- Many red apples -->
  <circle cx="14" cy="16" r="3.5" fill="#E8201A"/>
  <circle cx="14" cy="16" r="2" fill="#F04030" opacity="0.6"/>
  <circle cx="26" cy="11" r="3.5" fill="#CC1A10"/>
  <circle cx="26" cy="11" r="2" fill="#E02820" opacity="0.6"/>
  <circle cx="34" cy="16" r="3" fill="#E8201A"/>
  <circle cx="34" cy="16" r="1.8" fill="#F04030" opacity="0.6"/>
  <circle cx="11" cy="24" r="3" fill="#CC1A10"/>
  <circle cx="11" cy="24" r="1.8" fill="#E02820" opacity="0.6"/>
  <circle cx="22" cy="23" r="3.5" fill="#E8201A"/>
  <circle cx="22" cy="23" r="2" fill="#F04030" opacity="0.6"/>
  <circle cx="37" cy="22" r="3" fill="#CC1A10"/>
  <circle cx="37" cy="22" r="1.8" fill="#E02820" opacity="0.6"/>
  <circle cx="18" cy="27" r="3" fill="#E8201A"/>
  <circle cx="18" cy="27" r="1.8" fill="#F04030" opacity="0.6"/>
  <!-- Apple stems -->
  <path d="M14 13 Q14.5 11 15 10" stroke="#5AB85A" stroke-width="1" fill="none" stroke-linecap="round"/>
  <path d="M26 8 Q26.5 6 27 5" stroke="#5AB85A" stroke-width="1" fill="none" stroke-linecap="round"/>
  <path d="M22 20 Q22.5 18 23 17" stroke="#5AB85A" stroke-width="1" fill="none" stroke-linecap="round"/>
  <!-- Fallen apple -->
  <circle cx="8" cy="43" r="2.5" fill="#E8201A"/>
</svg>
