<svg xmlns="http://www.w3.org/2000/svg" viewBox="0 0 48 48" width="48" height="48">
  <!-- Wooden Barrel prop -->
  <!-- Barrel body -->
  <path d="M10 16 Q8 24 8 32 Q8 42 24 42 Q40 42 40 32 Q40 24 38 16Z" fill="#8B6035"/>
  <!-- Barrel belly (wider middle) -->
  <ellipse cx="24" cy="28" rx="18" ry="14" fill="#9B7045" opacity="0.3"/>
  <!-- Top ellipse -->
  <ellipse cx="24" cy="16" rx="14" ry="5" fill="#A07840"/>
  <ellipse cx="24" cy="16" rx="11" ry="3.5" fill="#C49050" opacity="0.45"/>
  <!-- Bottom ellipse -->
  <ellipse cx="24" cy="42" rx="14" ry="4" fill="#8B6035"/>
  <ellipse cx="24" cy="42" rx="11" ry="2.5" fill="#A07040" opacity="0.4"/>
  <!-- Wood plank lines -->
  <path d="M12 18 Q10 28 10 38" stroke="#6B4A20" stroke-width="1" fill="none" opacity="0.5"/>
  <path d="M18 14 Q17 26 17 40" stroke="#6B4A20" stroke-width="1" fill="none" opacity="0.5"/>
  <path d="M30 14 Q31 26 31 40" stroke="#6B4A20" stroke-width="1" fill="none" opacity="0.5"/>
  <path d="M36 18 Q38 28 38 38" stroke="#6B4A20" stroke-width="1" fill="none" opacity="0.5"/>
  <!-- Metal hoops -->
  <path d="M9 22 Q24 19 39 22" stroke="#5A5050" stroke-width="2.5" fill="none"/>
  <path d="M9 22 Q24 20 39 22" stroke="#7A7070" stroke-width="1" fill="none" opacity="0.4"/>
  <path d="M8 34 Q24 31 40 34" stroke="#5A5050" stroke-width="2.5" fill="none"/>
  <path d="M8 34 Q24 32 40 34" stroke="#7A7070" stroke-width="1" fill="none" opacity="0.4"/>
  <!-- Tap/bung -->
  <circle cx="24" cy="28" r="3" fill="#6B4A20"/>
  <circle cx="24" cy="28" r="2" fill="#8B6035"/>
  <rect x="22" y="27" width="4" height="2" rx="1" fill="#5A3A10"/>
  <!-- Honey drip from tap -->
  <path d="M24 31 Q24 35 24 38" stroke="#E8B420" stroke-width="2" fill="none" stroke-linecap="round" opacity="0.7"/>
</svg>
