<svg xmlns="http://www.w3.org/2000/svg" viewBox="0 0 48 48" width="48" height="48">
  <!-- Beehive / Skep prop -->
  <!-- Post/stand -->
  <rect x="22" y="36" width="4" height="10" rx="1" fill="#8B6914"/>
  <ellipse cx="24" cy="46" rx="8" ry="2.5" fill="#8B6914"/>
  <ellipse cx="24" cy="45.5" rx="7" ry="1.8" fill="#A07830" opacity="0.4"/>
  <!-- Hive base layer -->
  <ellipse cx="24" cy="38" rx="13" ry="4" fill="#D4A45A"/>
  <path d="M11 38 Q11 34 24 34 Q37 34 37 38Z" fill="#E8C870"/>
  <!-- Hive tiers (coiled straw rings) -->
  <ellipse cx="24" cy="34" rx="12" ry="3.5" fill="#D4A45A"/>
  <path d="M12 34 Q12 29 24 29 Q36 29 36 34Z" fill="#E8C870"/>
  <ellipse cx="24" cy="29" rx="10" ry="3" fill="#C4944A"/>
  <path d="M14 29 Q14 24 24 24 Q34 24 34 29Z" fill="#D4B460"/>
  <ellipse cx="24" cy="24" rx="8" ry="2.5" fill="#C4944A"/>
  <path d="M16 24 Q16 19 24 19 Q32 19 32 24Z" fill="#D4A450"/>
  <ellipse cx="24" cy="19" rx="6" ry="2" fill="#C4944A"/>
  <path d="M18 19 Q18 14 24 14 Q30 14 30 19Z" fill="#E8C870"/>
  <!-- Dome top -->
  <ellipse cx="24" cy="14" rx="5" ry="2" fill="#D4A45A"/>
  <ellipse cx="24" cy="13" rx="4" ry="4" fill="#E8C870"/>
  <ellipse cx="24" cy="11" rx="2.5" ry="2.5" fill="#D4A45A"/>
  <!-- Entry hole -->
  <ellipse cx="24" cy="37.5" rx="3.5" ry="1.5" fill="#8B6914"/>
  <!-- Coil texture lines on tiers -->
  <path d="M13 36 Q24 34.5 35 36" stroke="#C4944A" stroke-width="0.7" fill="none" opacity="0.6"/>
  <path d="M15 31 Q24 29.5 33 31" stroke="#C4944A" stroke-width="0.7" fill="none" opacity="0.6"/>
  <path d="M16 26 Q24 24.5 32 26" stroke="#C4944A" stroke-width="0.7" fill="none" opacity="0.6"/>
  <path d="M18 21 Q24 19.5 30 21" stroke="#C4944A" stroke-width="0.7" fill="none" opacity="0.6"/>
  <!-- Bee flying nearby -->
  <ellipse cx="38" cy="24" rx="2.5" ry="3.5" fill="#FFD700"/>
  <rect x="36" y="23" width="4" height="1.5" rx="0.7" fill="#3A3A1A" opacity="0.85"/>
  <ellipse cx="37" cy="21" rx="3" ry="1.5" fill="#C8E8FF" opacity="0.7" transform="rotate(-25 37 21)"/>
</svg>
