<svg xmlns="http://www.w3.org/2000/svg" viewBox="0 0 390 400" width="390" height="400">
  <!-- Warm afternoon sky -->
  <rect width="390" height="160" fill="#F0C87A"/>
  <!-- Gradient sky overlay -->
  <rect width="390" height="80" fill="#87CEEB" opacity="0.5"/>
  <!-- Soft clouds -->
  <ellipse cx="70" cy="45" rx="48" ry="18" fill="white" opacity="0.6"/>
  <ellipse cx="50" cy="40" rx="28" ry="12" fill="white" opacity="0.5"/>
  <ellipse cx="290" cy="55" rx="42" ry="16" fill="white" opacity="0.55"/>
  <ellipse cx="320" cy="50" rx="24" ry="10" fill="white" opacity="0.5"/>
  <!-- Warm harvest sun -->
  <circle cx="340" cy="42" r="30" fill="#FFB347"/>
  <circle cx="340" cy="42" r="23" fill="#FFD070" opacity="0.6"/>
  <!-- Ground - orchard grass -->
  <rect y="160" width="390" height="240" fill="#6BBE6B"/>
  <!-- Ground shading/depth -->
  <rect y="160" width="390" height="12" fill="#5AAD5A" opacity="0.7"/>
  <!-- Dirt path through orchard -->
  <path d="M170 400 Q185 300 190 200 Q193 170 195 160" stroke="#C4A97D" stroke-width="36" fill="none" opacity="0.6" stroke-linecap="round"/>
  <!-- Path detail -->
  <path d="M172 400 Q186 305 191 202" stroke="#D4B98D" stroke-width="16" fill="none" opacity="0.3" stroke-linecap="round"/>
  <!-- Left apple tree -->
  <rect x="50" y="280" width="16" height="65" rx="4" fill="#8B6914"/>
  <rect x="53" y="280" width="6" height="65" rx="2" fill="#A0785A" opacity="0.5"/>
  <circle cx="58" cy="265" r="38" fill="#2E8B22"/>
  <circle cx="44" cy="255" r="26" fill="#3A9B2E" opacity="0.7"/>
  <circle cx="70" cy="258" r="22" fill="#348B28" opacity="0.6"/>
  <!-- Apples on left tree -->
  <circle cx="50" cy="258" r="5" fill="#E8201A"/>
  <circle cx="50" cy="258" r="3" fill="#F04030" opacity="0.7"/>
  <circle cx="65" cy="268" r="5" fill="#CC1A10"/>
  <circle cx="65" cy="268" r="3" fill="#E02820" opacity="0.7"/>
  <circle cx="55" cy="245" r="4.5" fill="#E8201A"/>
  <circle cx="72" cy="252" r="4" fill="#D01A10"/>
  <circle cx="42" cy="265" r="4" fill="#E8201A"/>
  <circle cx="60" cy="278" r="3.5" fill="#CC1A10"/>
  <!-- Right apple tree -->
  <rect x="300" y="285" width="16" height="60" rx="4" fill="#8B6914"/>
  <rect x="303" y="285" width="6" height="60" rx="2" fill="#A0785A" opacity="0.5"/>
  <circle cx="308" cy="268" r="36" fill="#228B22"/>
  <circle cx="294" cy="260" r="24" fill="#2E9B2A" opacity="0.7"/>
  <circle cx="320" cy="262" r="20" fill="#289022" opacity="0.6"/>
  <!-- Apples on right tree -->
  <circle cx="298" cy="262" r="5" fill="#E8201A"/>
  <circle cx="298" cy="262" r="3" fill="#F04030" opacity="0.7"/>
  <circle cx="316" cy="270" r="5" fill="#CC1A10"/>
  <circle cx="316" cy="270" r="3" fill="#E02820" opacity="0.7"/>
  <circle cx="305" cy="252" r="4.5" fill="#E8201A"/>
  <circle cx="320" cy="257" r="4" fill="#D01A10"/>
  <circle cx="292" cy="270" r="4" fill="#E8201A"/>
  <circle cx="310" cy="280" r="3.5" fill="#CC1A10"/>
  <!-- Background trees (smaller, less detail) -->
  <rect x="130" y="310" width="10" height="45" rx="3" fill="#8B6914" opacity="0.7"/>
  <circle cx="135" cy="298" r="22" fill="#228B22" opacity="0.65"/>
  <rect x="235" y="315" width="10" height="40" rx="3" fill="#8B6914" opacity="0.7"/>
  <circle cx="240" cy="302" r="20" fill="#2E8B22" opacity="0.65"/>
  <!-- Fallen apples on ground -->
  <circle cx="40" cy="352" r="4" fill="#E8201A"/>
  <circle cx="40" cy="352" r="2.5" fill="#F04030" opacity="0.7"/>
  <circle cx="75" cy="360" r="3.5" fill="#CC1A10"/>
  <circle cx="318" cy="355" r="4" fill="#E8201A"/>
  <circle cx="297" cy="368" r="3.5" fill="#CC1A10"/>
  <!-- Beehive on post -->
  <rect x="155" y="310" width="6" height="40" rx="1" fill="#8B6914"/>
  <ellipse cx="158" cy="310" rx="10" ry="4" fill="#D4A45A"/>
  <ellipse cx="158" cy="305" rx="9" ry="7" fill="#E8C87A"/>
  <ellipse cx="158" cy="299" rx="8" ry="6" fill="#D4B460"/>
  <ellipse cx="158" cy="294" rx="6" ry="4" fill="#C4A450"/>
  <!-- Beehive lines -->
  <path d="M149 308 Q158 306 167 308" stroke="#C4944A" stroke-width="0.8" fill="none"/>
  <path d="M150 303 Q158 301 166 303" stroke="#C4944A" stroke-width="0.8" fill="none"/>
  <!-- Harvest basket near right tree -->
  <ellipse cx="340" cy="362" rx="18" ry="7" fill="#A0785A"/>
  <path d="M322 362 Q322 345 340 343 Q358 345 358 362Z" fill="#8B6035"/>
  <ellipse cx="340" cy="343" rx="18" ry="5" fill="#C4944A"/>
  <!-- Apples in basket -->
  <circle cx="333" cy="348" r="4" fill="#E8201A"/>
  <circle cx="344" cy="346" r="4.5" fill="#CC1A10"/>
  <circle cx="337" cy="342" r="3.5" fill="#E8201A"/>
  <!-- Wooden fence -->
  <rect x="10" y="358" width="135" height="5" rx="2" fill="#A0522D"/>
  <rect x="225" y="358" width="155" height="5" rx="2" fill="#A0522D"/>
  <rect x="25" y="346" width="6" height="22" rx="1" fill="#A0522D"/>
  <rect x="80" y="346" width="6" height="22" rx="1" fill="#A0522D"/>
  <rect x="135" y="346" width="6" height="22" rx="1" fill="#A0522D"/>
  <rect x="240" y="346" width="6" height="22" rx="1" fill="#A0522D"/>
  <rect x="295" y="346" width="6" height="22" rx="1" fill="#A0522D"/>
  <rect x="350" y="346" width="6" height="22" rx="1" fill="#A0522D"/>
  <!-- Butterflies -->
  <ellipse cx="158" cy="190" rx="7" ry="4" fill="#FFD070" opacity="0.75" transform="rotate(-20 158 190)"/>
  <ellipse cx="167" cy="190" rx="7" ry="4" fill="#FFD070" opacity="0.75" transform="rotate(20 167 190)"/>
  <circle cx="163" cy="191" r="1.2" fill="#8B4">
  </circle>
  <!-- Label -->
  <text x="195" y="395" text-anchor="middle" font-family="sans-serif" font-size="13" fill="#3A5E1A" font-weight="bold">Zone 2 - Orchard Grove</text>
</svg>
